<svg version="1.1" id="Layer_1" xmlns="http://www.w3.org/2000/svg" xmlns:xlink="http://www.w3.org/1999/xlink" x="0px" y="0px"
	 width="100%" viewBox="0 0 490 509" enable-background="new 0 0 490 509" xml:space="preserve">
<path fill="#000000" opacity="1.000000" stroke="none" 
	d="
M213.000000,510.000000 
	C142.000015,510.000000 71.500031,510.000000 1.000038,510.000000 
	C1.000025,340.333405 1.000025,170.666779 1.000013,1.000129 
	C164.333237,1.000086 327.666473,1.000086 490.999817,1.000043 
	C490.999878,170.666534 490.999878,340.333069 490.999939,509.999817 
	C398.500000,510.000000 306.000000,510.000000 213.000000,510.000000 
M406.955200,265.416229 
	C406.644928,265.315399 406.334625,265.214569 405.615295,264.956360 
	C405.615295,264.956360 405.177307,264.940491 404.967255,264.434265 
	C404.653107,264.327423 404.338928,264.220612 403.418915,263.958282 
	C403.001953,263.953430 402.585022,263.948578 401.966492,263.434326 
	C401.652588,263.327484 401.338684,263.220642 400.616852,262.956329 
	C400.616852,262.956329 400.179962,262.939453 399.967438,262.434204 
	C399.653229,262.327393 399.339020,262.220581 398.321503,261.956543 
	C397.600922,261.952911 396.880310,261.949280 395.830688,261.281769 
	C394.224487,260.892487 392.618286,260.503174 390.248596,259.963806 
	C389.211243,259.960327 388.173920,259.956848 386.805847,259.261383 
	C385.545624,259.220886 384.285400,259.180359 382.612305,258.972961 
	C382.612305,258.972961 382.167603,258.949432 381.756165,258.218170 
	C379.516205,258.186798 377.276215,258.155396 374.356262,257.962067 
	C373.896454,258.015167 373.436646,258.068268 372.137360,257.998657 
	C371.432617,257.255615 370.419830,256.627197 370.091339,255.744202 
	C369.518738,254.204987 369.367798,252.508911 369.001251,249.966141 
	C368.017487,242.586594 367.731598,235.028107 365.895386,227.867142 
	C362.706299,215.430405 356.676819,204.051468 347.930573,194.727509 
	C341.417572,187.784317 333.361572,182.288513 325.304840,175.830215 
	C324.001831,174.872513 322.818054,173.643494 321.373199,173.008636 
	C317.252899,171.198257 313.026337,169.629730 308.931030,167.442398 
	C308.630371,167.341232 308.329681,167.240067 307.607941,166.979553 
	C307.607941,166.979553 307.158203,166.957840 306.898956,166.353287 
	C306.278290,166.285141 305.657623,166.216995 304.608582,165.987228 
	C304.608582,165.987228 304.151611,165.958130 303.965576,165.436157 
	C303.648132,165.330612 303.330688,165.225052 302.376892,164.967255 
	C301.942688,164.934158 301.508514,164.901062 300.738403,164.197540 
	C299.501678,164.182465 298.264923,164.167404 296.603516,163.991150 
	C296.603516,163.991150 296.150269,163.961151 295.790039,163.248596 
	C293.204010,162.876572 290.617981,162.504547 287.102142,161.976196 
	C279.397980,162.033463 271.693848,162.090744 263.130890,162.012115 
	C260.031921,162.660812 256.932953,163.309494 253.215546,163.963455 
	C252.809875,164.019592 252.404190,164.075729 251.260376,163.994766 
	C249.786743,164.648773 248.313095,165.302780 246.395691,165.978683 
	C246.395691,165.978683 245.983673,166.144943 245.506302,166.027390 
	C245.506302,166.027390 245.034225,166.164658 244.278122,166.015152 
	C238.819244,168.673553 233.360367,171.331955 227.233490,174.296295 
	C227.075195,174.767029 227.012680,175.584106 226.744705,175.658218 
	C218.499710,177.938278 213.112366,184.069031 208.045166,190.226517 
	C201.148071,198.607590 194.884262,207.509827 188.354965,216.180527 
	C182.146988,216.180527 175.072693,216.180527 167.167206,216.031464 
	C164.819458,215.998306 162.339279,215.456345 160.148529,216.026443 
	C153.295853,217.809708 146.507401,219.875732 139.777344,222.085739 
	C130.051956,225.279373 123.030083,232.583557 116.406998,239.641678 
	C109.319130,247.195084 104.289436,256.508392 101.984192,267.802094 
	C101.657204,269.024780 101.244896,270.231934 101.019066,271.473022 
	C100.311638,275.361084 99.674515,279.261871 98.139374,283.005188 
	C89.160202,284.754547 79.529213,285.023560 71.362953,288.619171 
	C60.584209,293.365051 50.517628,300.283325 43.900879,310.667847 
	C40.820854,315.501709 38.529957,320.838409 35.248131,326.341827 
	C34.216007,331.542175 33.183884,336.742523 32.008678,342.605469 
	C31.970228,343.054962 31.931780,343.504425 31.209011,344.469727 
	C31.520576,351.316803 31.832144,358.163910 31.999607,365.660858 
	C32.368355,366.427917 32.737103,367.195007 33.036499,368.746368 
	C34.482975,372.821167 35.606380,377.048187 37.440655,380.940216 
	C41.760952,390.107239 47.819061,397.867554 55.781418,404.384094 
	C67.598351,414.055206 80.820557,419.398132 96.972740,419.997925 
	C128.655518,419.948547 160.338287,419.899139 192.948349,419.973572 
	C210.617355,419.939392 228.286362,419.905212 246.642670,420.029694 
	C247.107147,419.977417 247.571625,419.925110 248.964233,419.977753 
	C263.962097,419.939117 278.959961,419.900482 294.867310,420.023407 
	C298.245636,419.982697 301.623962,419.941956 305.745331,420.033569 
	C306.496033,419.989563 307.246765,419.945557 308.743591,420.025757 
	C309.496521,419.985229 310.249451,419.944702 311.827820,420.036896 
	C313.217712,419.993530 314.607605,419.950195 316.883148,420.030090 
	C319.266357,419.976379 321.649536,419.922668 324.893127,419.983246 
	C326.915283,419.945862 328.937439,419.908447 331.726715,420.029755 
	C332.770813,420.024841 333.814880,420.019928 335.279144,420.803864 
	C347.232727,420.875214 359.186279,420.962677 371.139923,420.974945 
	C371.806824,420.975647 372.474365,420.354523 373.917969,420.042267 
	C374.949890,419.995148 375.981842,419.948029 377.749023,420.036194 
	C378.490540,419.982422 379.232086,419.928650 380.841095,419.976990 
	C387.236542,418.598511 393.631989,417.220032 400.553772,415.904175 
	C400.749939,415.620056 400.946075,415.335938 401.061127,415.050354 
	C401.061127,415.050354 401.073334,415.130554 401.819611,415.003448 
	C415.078491,410.082825 426.125824,402.163300 434.737671,390.881805 
	C443.739868,379.088898 450.159943,366.258698 451.806458,350.767059 
	C451.829865,348.192413 451.853302,345.617767 452.043335,342.148865 
	C451.997009,339.426453 451.950684,336.704041 452.013916,333.116089 
	C451.676300,330.705902 451.360565,328.292419 450.997559,325.886047 
	C448.485077,309.230927 440.945251,294.921539 429.342651,283.051025 
	C423.657532,277.234680 416.396851,272.958313 409.861664,267.324646 
	C408.936249,266.835083 408.010864,266.345520 407.067932,265.936493 
	C407.067932,265.936493 407.148590,265.919434 406.955200,265.416229 
z"/>
<path fill="#ABADB9" opacity="1.000000" stroke="none" 
	d="
M400.027435,415.841522 
	C393.631989,417.220032 387.236542,418.598511 380.207123,419.713806 
	C378.720032,419.600739 377.866882,419.750824 377.013763,419.900909 
	C375.981842,419.948029 374.949890,419.995148 373.054443,419.978882 
	C363.777008,419.838379 355.363159,419.761292 346.945282,419.341614 
	C344.039948,416.706299 341.312408,414.138611 338.203888,412.173615 
	C329.691406,406.792542 321.077332,401.564880 312.388397,396.472839 
	C306.696655,393.137268 300.804718,390.143311 294.776855,386.820435 
	C294.365021,386.117859 294.178772,385.591217 294.143555,384.762634 
	C299.485046,379.853333 304.559113,375.106384 309.887390,370.664368 
	C326.867188,356.508667 343.970093,342.500641 360.955963,328.352173 
	C364.463104,325.430817 367.670349,322.149414 371.376770,319.009552 
	C372.214111,318.901459 372.690552,318.817780 373.391724,318.772949 
	C373.616455,318.811768 374.060608,318.915924 374.048615,319.324158 
	C374.104340,320.556885 374.031799,321.422607 374.260315,322.199860 
	C379.441437,339.820923 384.729797,357.410797 389.839020,375.052551 
	C393.698395,388.378693 397.336639,401.768860 401.073334,415.130554 
	C401.073334,415.130554 401.061127,415.050354 400.883484,415.135559 
	C400.409302,415.350800 400.183197,415.557739 400.027435,415.841522 
z"/>
<path fill="#BFBEC3" opacity="1.000000" stroke="none" 
	d="
M401.446472,415.067017 
	C397.336639,401.768860 393.698395,388.378693 389.839020,375.052551 
	C384.729797,357.410797 379.441437,339.820923 374.260315,322.199860 
	C374.031799,321.422607 374.104340,320.556885 374.474762,319.334991 
	C388.248230,321.453369 401.596222,323.904114 414.915161,326.503845 
	C427.261017,328.913666 439.575867,331.482727 451.904358,333.981628 
	C451.950684,336.704041 451.997009,339.426453 451.704224,342.900604 
	C451.256470,346.149597 451.147858,348.646851 451.039215,351.144104 
	C450.159943,366.258698 443.739868,379.088898 434.737671,390.881805 
	C426.125824,402.163300 415.078491,410.082825 401.446472,415.067017 
z"/>
<path fill="#CFE5EB" opacity="1.000000" stroke="none" 
	d="
M251.998520,164.131866 
	C252.404190,164.075729 252.809875,164.019592 253.956299,163.985107 
	C257.794617,163.387177 260.892151,162.767593 263.989685,162.148010 
	C271.693848,162.090744 279.397980,162.033463 287.819122,162.323212 
	C291.074158,163.100525 293.612213,163.530838 296.150269,163.961151 
	C296.150269,163.961151 296.603516,163.991150 297.022461,164.297745 
	C298.652344,164.692215 299.863342,164.780090 301.074310,164.867950 
	C301.508514,164.901062 301.942688,164.934158 302.831848,165.244217 
	C303.550537,165.715408 303.838806,165.861069 304.151611,165.958130 
	C304.151611,165.958130 304.608582,165.987228 305.029297,166.281311 
	C306.019409,166.702866 306.588806,166.830353 307.158203,166.957840 
	C307.158203,166.957840 307.607941,166.979553 307.908630,167.236893 
	C308.375763,167.710907 308.586517,167.868179 308.841583,167.966049 
	C313.026337,169.629730 317.252899,171.198257 321.373199,173.008636 
	C322.818054,173.643494 324.001831,174.872513 325.647034,176.391296 
	C324.369873,181.732147 322.807068,186.531952 321.120056,191.287704 
	C316.774414,203.538391 312.373779,215.769577 307.698822,227.847504 
	C306.805817,227.113281 306.145111,226.592911 305.621979,225.959030 
	C297.547974,216.175751 287.594177,211.036926 274.687347,213.932556 
	C270.389648,214.896729 266.271912,216.663208 261.902100,217.759674 
	C253.098099,204.845566 244.565689,192.162704 235.738449,179.688492 
	C234.098602,177.371140 231.272079,175.893509 228.720581,174.010254 
	C228.265793,173.991577 228.083633,173.990967 227.901489,173.990356 
	C233.360367,171.331955 238.819244,168.673553 244.756165,166.212219 
	C245.234192,166.409286 245.655838,166.469864 245.655838,166.469864 
	C245.655838,166.469864 245.983673,166.144943 245.983673,166.144943 
	C245.983673,166.144943 246.395691,165.978683 247.013290,165.987915 
	C249.086761,165.375397 250.542648,164.753632 251.998520,164.131866 
z"/>
<path fill="#8B97AB" opacity="1.000000" stroke="none" 
	d="
M248.036102,419.872803 
	C247.571625,419.925110 247.107147,419.977417 245.974152,419.700073 
	C227.546112,419.267334 209.786560,419.164215 192.017654,419.034607 
	C192.008286,419.008087 191.987686,418.955719 191.994324,418.492096 
	C191.999969,400.243591 192.028839,382.458618 191.954315,364.674042 
	C191.946381,362.778595 191.333878,360.885742 191.004028,358.735413 
	C191.008163,358.308289 191.010117,358.137451 191.425476,357.981140 
	C193.218445,358.015137 194.598038,358.034607 196.174530,358.359924 
	C196.905670,359.043457 197.388336,359.608398 197.981567,359.771698 
	C217.801285,365.226654 237.641190,370.608368 257.456329,376.079742 
	C267.990143,378.988373 278.483734,382.042603 288.944580,385.376099 
	C283.378601,388.817688 278.132782,392.644897 272.272461,394.804718 
	C266.448090,396.951263 257.943878,404.339783 257.011230,409.939331 
	C256.505676,412.974487 255.676743,415.955750 254.582458,418.971863 
	C252.126190,419.279205 250.081146,419.576019 248.036102,419.872803 
z"/>
<path fill="#E0E1E3" opacity="1.000000" stroke="none" 
	d="
M451.959137,333.548889 
	C439.575867,331.482727 427.261017,328.913666 414.915161,326.503845 
	C401.596222,323.904114 388.248230,321.453369 374.486755,318.926758 
	C374.060608,318.915924 373.616455,318.811768 373.350250,318.487732 
	C373.055634,317.774994 373.027222,317.386292 373.152832,316.653809 
	C376.200012,302.757812 379.206940,289.228424 381.928040,275.641785 
	C382.956970,270.504272 383.325928,265.234619 384.388580,260.021393 
	C385.566467,259.996185 386.351501,259.974792 387.136566,259.953369 
	C388.173920,259.956848 389.211243,259.960327 390.724792,260.398193 
	C392.853912,261.203613 394.506805,261.574646 396.159729,261.945679 
	C396.880310,261.949280 397.600922,261.952911 398.812744,262.235474 
	C399.570923,262.707733 399.862915,262.849396 400.179962,262.939453 
	C400.179962,262.939453 400.616852,262.956329 400.958313,263.235382 
	C401.563202,263.710114 401.852631,263.853210 402.168060,263.943726 
	C402.585022,263.948578 403.001953,263.953430 403.861267,264.235962 
	C404.570526,264.705719 404.861755,264.847992 405.177307,264.940491 
	C405.177307,264.940491 405.615295,264.956360 405.953491,265.232605 
	C406.550201,265.702301 406.835846,265.839172 407.148590,265.919434 
	C407.148590,265.919434 407.067932,265.936493 407.099854,266.235535 
	C408.037598,267.018036 408.943420,267.501526 409.849243,267.985016 
	C416.396851,272.958313 423.657532,277.234680 429.342651,283.051025 
	C440.945251,294.921539 448.485077,309.230927 450.997559,325.886047 
	C451.360565,328.292419 451.676300,330.705902 451.959137,333.548889 
z"/>
<path fill="#E1ECF1" opacity="1.000000" stroke="none" 
	d="
M307.995117,228.008545 
	C312.373779,215.769577 316.774414,203.538391 321.120056,191.287704 
	C322.807068,186.531952 324.369873,181.732147 325.991028,176.550232 
	C333.361572,182.288513 341.417572,187.784317 347.930573,194.727509 
	C356.676819,204.051468 362.706299,215.430405 365.895386,227.867142 
	C367.731598,235.028107 368.017487,242.586594 369.006348,250.869125 
	C368.995026,253.858704 368.978638,255.945297 368.496826,258.022217 
	C361.020355,258.341675 354.009247,258.670837 346.739014,258.787292 
	C342.825684,255.418930 339.646362,251.185364 335.421906,249.324142 
	C325.566345,244.981995 316.583221,239.648972 308.857117,231.683167 
	C308.475342,230.246262 308.235229,229.127411 307.995117,228.008545 
z"/>
<path fill="#9AC5D8" opacity="1.000000" stroke="none" 
	d="
M102.162781,266.990173 
	C104.289436,256.508392 109.319130,247.195084 116.406998,239.641678 
	C123.030083,232.583557 130.051956,225.279373 139.777344,222.085739 
	C146.507401,219.875732 153.295853,217.809708 160.148529,216.026443 
	C162.339279,215.456345 164.819458,215.998306 167.585083,216.513321 
	C168.639069,219.875458 169.288757,222.752823 169.908951,225.636520 
	C172.945679,239.756348 175.974533,253.877869 178.751312,267.999542 
	C178.326584,268.000214 178.156723,268.000092 177.522003,268.001831 
	C159.679947,267.336151 142.301620,266.696136 124.926292,265.982880 
	C120.304359,265.793091 115.685081,265.075714 111.077057,265.175720 
	C108.093910,265.240448 105.133423,266.349243 102.162781,266.990173 
z"/>
<path fill="#7798B2" opacity="1.000000" stroke="none" 
	d="
M32.151760,341.942871 
	C33.183884,336.742523 34.216007,331.542175 35.874035,326.021240 
	C37.566940,325.064514 38.610855,323.922058 39.704586,323.872162 
	C48.618359,323.465729 57.542263,323.288147 66.461464,322.992218 
	C75.719086,322.685120 84.984604,322.484253 94.227882,321.925934 
	C99.808922,321.588776 105.354202,320.659546 110.954544,320.374756 
	C111.709076,323.149841 112.424599,325.546509 112.812912,328.089417 
	C106.748596,331.076202 105.374603,337.216919 104.526489,342.179565 
	C103.881912,345.951294 103.650215,349.789490 101.923119,353.251038 
	C98.386177,360.340027 96.748070,368.712250 88.616638,372.981018 
	C87.798424,372.758331 87.291580,372.656738 86.873177,372.407013 
	C70.264938,362.493225 53.686684,352.528656 37.021297,342.712006 
	C35.704109,341.936157 33.788990,342.175415 32.151760,341.942871 
z"/>
<path fill="#6B7F97" opacity="1.000000" stroke="none" 
	d="
M32.143707,365.010986 
	C31.832144,358.163910 31.520576,351.316803 31.917355,344.307556 
	C33.010086,345.122253 33.800709,346.135437 33.717194,347.070526 
	C32.666813,358.830750 36.291058,369.554260 41.173180,379.911041 
	C41.757061,381.149628 44.537354,382.028015 46.247402,381.948669 
	C55.821285,381.504425 65.410866,379.937531 74.930908,380.326111 
	C80.914429,380.570343 85.098442,378.866486 89.344772,375.048889 
	C90.781715,376.046448 92.068390,376.846649 92.937950,377.969788 
	C100.010513,387.104889 106.845451,396.428497 114.075775,405.435364 
	C119.478455,412.165497 124.027496,420.691650 135.116241,418.364990 
	C135.331192,418.319885 135.640396,418.724030 135.443054,418.929749 
	C123.747604,418.960785 112.514435,418.945129 101.282150,419.037598 
	C99.537010,419.051941 97.795952,419.560394 96.053001,419.840363 
	C80.820557,419.398132 67.598351,414.055206 55.781418,404.384094 
	C47.819061,397.867554 41.760952,390.107239 37.440655,380.940216 
	C35.606380,377.048187 34.482975,372.821167 33.287048,368.143677 
	C33.072971,366.697662 32.608341,365.854340 32.143707,365.010986 
z"/>
<path fill="#90B7CC" opacity="1.000000" stroke="none" 
	d="
M102.073486,267.396149 
	C105.133423,266.349243 108.093910,265.240448 111.077057,265.175720 
	C115.685081,265.075714 120.304359,265.793091 124.926292,265.982880 
	C142.301620,266.696136 159.679947,267.336151 177.529709,268.385071 
	C177.995651,269.788574 177.989044,270.810669 177.593613,271.891113 
	C166.976608,273.674225 159.837250,279.906433 153.691864,287.888000 
	C153.471329,287.864990 153.028030,287.853271 152.787155,287.609161 
	C141.805008,284.843384 129.906586,290.816711 127.617851,302.027161 
	C122.187317,306.726807 117.094696,311.364624 111.706482,315.835846 
	C105.444260,305.877045 99.477631,296.084808 93.701530,286.605286 
	C96.205940,284.978882 97.608047,284.068298 99.010147,283.157745 
	C99.674515,279.261871 100.311638,275.361084 101.019066,271.473022 
	C101.244896,270.231934 101.657204,269.024780 102.073486,267.396149 
z"/>
<path fill="#D5E0E6" opacity="1.000000" stroke="none" 
	d="
M346.998169,259.000000 
	C354.009247,258.670837 361.020355,258.341675 368.724548,258.256714 
	C370.604034,258.374420 371.790436,258.247894 372.976837,258.121368 
	C373.436646,258.068268 373.896454,258.015167 374.999115,258.296021 
	C377.817169,258.736450 379.992401,258.842957 382.167603,258.949432 
	C382.167603,258.949432 382.612305,258.972961 382.935852,259.247742 
	C383.465973,259.747040 383.711426,259.914612 383.995758,260.025208 
	C383.325928,265.234619 382.956970,270.504272 381.928040,275.641785 
	C379.206940,289.228424 376.200012,302.757812 372.841980,316.514465 
	C371.390961,316.107941 370.322693,315.597626 369.431335,314.870453 
	C360.060852,307.225647 350.673035,299.600891 341.384583,291.857117 
	C335.167084,286.673584 329.101837,281.307495 323.408783,276.014160 
	C327.743591,275.634857 331.779816,275.768799 335.485535,274.726990 
	C338.219696,273.958374 340.522522,271.655487 343.286804,269.806580 
	C344.703461,266.051270 345.850830,262.525635 346.998169,259.000000 
z"/>
<path fill="#7FA4BC" opacity="1.000000" stroke="none" 
	d="
M98.574760,283.081482 
	C97.608047,284.068298 96.205940,284.978882 93.701530,286.605286 
	C99.477631,296.084808 105.444260,305.877045 111.701637,316.235565 
	C111.966011,317.867889 111.939636,318.933868 111.663857,319.991486 
	C111.414459,319.983093 110.915550,319.996338 110.915550,319.996338 
	C105.354202,320.659546 99.808922,321.588776 94.227882,321.925934 
	C84.984604,322.484253 75.719086,322.685120 66.461464,322.992218 
	C57.542263,323.288147 48.618359,323.465729 39.704586,323.872162 
	C38.610855,323.922058 37.566940,325.064514 36.190643,325.823914 
	C38.529957,320.838409 40.820854,315.501709 43.900879,310.667847 
	C50.517628,300.283325 60.584209,293.365051 71.362953,288.619171 
	C79.529213,285.023560 89.160202,284.754547 98.574760,283.081482 
z"/>
<path fill="#AFD3E0" opacity="1.000000" stroke="none" 
	d="
M179.006180,267.998779 
	C175.974533,253.877869 172.945679,239.756348 169.908951,225.636520 
	C169.288757,222.752823 168.639069,219.875458 168.000671,216.587860 
	C175.072693,216.180527 182.146988,216.180527 188.354965,216.180527 
	C194.884262,207.509827 201.148071,198.607590 208.045166,190.226517 
	C213.112366,184.069031 218.499710,177.938278 226.744705,175.658218 
	C227.012680,175.584106 227.075195,174.767029 227.567490,174.143326 
	C228.083633,173.990967 228.265793,173.991577 228.775757,174.379562 
	C231.560577,179.539078 230.046585,183.619141 226.992950,187.506851 
	C226.094467,188.650757 225.452988,190.008743 224.772781,191.309967 
	C219.195724,201.978607 214.016495,212.877151 207.978180,223.277237 
	C200.285370,236.526962 191.860321,249.350296 183.869705,262.430023 
	C182.873474,264.060760 182.601868,266.134155 181.621002,268.002991 
	C180.500397,268.001984 179.753296,268.000397 179.006180,267.998779 
z"/>
<path fill="#6B849D" opacity="1.000000" stroke="none" 
	d="
M89.001221,375.001221 
	C85.098442,378.866486 80.914429,380.570343 74.930908,380.326111 
	C65.410866,379.937531 55.821285,381.504425 46.247402,381.948669 
	C44.537354,382.028015 41.757061,381.149628 41.173180,379.911041 
	C36.291058,369.554260 32.666813,358.830750 33.717194,347.070526 
	C33.800709,346.135437 33.010086,345.122253 32.259514,344.049652 
	C31.931780,343.504425 31.970228,343.054962 32.080219,342.274170 
	C33.788990,342.175415 35.704109,341.936157 37.021297,342.712006 
	C53.686684,352.528656 70.264938,362.493225 86.873177,372.407013 
	C87.291580,372.656738 87.798424,372.758331 88.624756,373.222290 
	C88.985519,373.515564 89.001915,373.998779 89.001358,374.249390 
	C89.000938,374.667084 89.001076,374.834137 89.001221,375.001221 
z"/>
<path fill="#989DAD" opacity="1.000000" stroke="none" 
	d="
M295.002441,386.996338 
	C300.804718,390.143311 306.696655,393.137268 312.388397,396.472839 
	C321.077332,401.564880 329.691406,406.792542 338.203888,412.173615 
	C341.312408,414.138611 344.039948,416.706299 346.489014,419.396790 
	C342.310791,419.868011 338.584900,419.941498 334.858978,420.015015 
	C333.814880,420.019928 332.770813,420.024841 331.062012,419.713928 
	C328.275787,419.555054 326.154266,419.712036 324.032745,419.868988 
	C321.649536,419.922668 319.266357,419.976379 316.346680,419.630981 
	C313.911255,417.336914 312.255493,417.180756 311.002380,419.904175 
	C310.249451,419.944702 309.496521,419.985229 308.300537,419.654541 
	C306.905762,419.489288 305.954010,419.695282 305.002289,419.901245 
	C301.623962,419.941956 298.245636,419.982697 294.181458,419.722473 
	C292.662537,419.277344 291.829437,419.133179 291.010254,418.593384 
	C291.674286,415.330872 293.370453,412.224670 292.779419,409.641846 
	C290.965240,401.714050 292.612762,394.376190 295.002441,386.996338 
z"/>
<path fill="#989DAD" opacity="1.000000" stroke="none" 
	d="
M96.512871,419.919128 
	C97.795952,419.560394 99.537010,419.051941 101.282150,419.037598 
	C112.514435,418.945129 123.747604,418.960785 135.882507,418.954041 
	C138.525116,418.965179 140.265701,418.963165 142.474457,418.971497 
	C159.290970,418.973175 175.639328,418.964447 191.987686,418.955750 
	C191.987686,418.955719 192.008286,419.008087 192.010803,419.231354 
	C192.013336,419.454620 192.021057,419.849762 192.021057,419.849762 
	C160.338287,419.899139 128.655518,419.948547 96.512871,419.919128 
z"/>
<path fill="#B0B3BC" opacity="1.000000" stroke="none" 
	d="
M192.484711,419.911682 
	C192.021057,419.849762 192.013336,419.454620 192.020172,419.257874 
	C209.786560,419.164215 227.546112,419.267334 245.630508,419.620758 
	C228.286362,419.905212 210.617355,419.939392 192.484711,419.911682 
z"/>
<path fill="#B0B3BC" opacity="1.000000" stroke="none" 
	d="
M290.996338,418.989044 
	C291.829437,419.133179 292.662537,419.277344 293.726746,419.641663 
	C278.959961,419.900482 263.962097,419.939117 248.500168,419.925293 
	C250.081146,419.576019 252.126190,419.279205 255.051514,418.987671 
	C267.619965,418.991638 279.308136,418.990326 290.996338,418.989044 
z"/>
<path fill="#F0F4F7" opacity="1.000000" stroke="none" 
	d="
M335.069061,420.409424 
	C338.584900,419.941498 342.310791,419.868011 346.492981,419.739380 
	C355.363159,419.761292 363.777008,419.838379 372.666229,419.969116 
	C372.474365,420.354523 371.806824,420.975647 371.139923,420.974945 
	C359.186279,420.962677 347.232727,420.875214 335.069061,420.409424 
z"/>
<path fill="#F0F4F7" opacity="1.000000" stroke="none" 
	d="
M263.560303,162.080063 
	C260.892151,162.767593 257.794617,163.387177 254.265533,163.982452 
	C256.932953,163.309494 260.031921,162.660812 263.560303,162.080063 
z"/>
<path fill="#F0F4F7" opacity="1.000000" stroke="none" 
	d="
M372.557098,258.059998 
	C371.790436,258.247894 370.604034,258.374420 369.189941,258.266418 
	C368.978638,255.945297 368.995026,253.858704 369.025757,251.325348 
	C369.367798,252.508911 369.518738,254.204987 370.091339,255.744202 
	C370.419830,256.627197 371.432617,257.255615 372.557098,258.059998 
z"/>
<path fill="#F0F4F7" opacity="1.000000" stroke="none" 
	d="
M295.970154,163.604874 
	C293.612213,163.530838 291.074158,163.100525 288.284027,162.401367 
	C290.617981,162.504547 293.204010,162.876572 295.970154,163.604874 
z"/>
<path fill="#929AAB" opacity="1.000000" stroke="none" 
	d="
M311.415100,419.970520 
	C312.255493,417.180756 313.911255,417.336914 315.903839,419.569366 
	C314.607605,419.950195 313.217712,419.993530 311.415100,419.970520 
z"/>
<path fill="#F0F4F7" opacity="1.000000" stroke="none" 
	d="
M395.995209,261.613708 
	C394.506805,261.574646 392.853912,261.203613 391.106537,260.473206 
	C392.618286,260.503174 394.224487,260.892487 395.995209,261.613708 
z"/>
<path fill="#F0F4F7" opacity="1.000000" stroke="none" 
	d="
M251.629456,164.063324 
	C250.542648,164.753632 249.086761,165.375397 247.235168,165.976974 
	C248.313095,165.302780 249.786743,164.648773 251.629456,164.063324 
z"/>
<path fill="#E0E1E3" opacity="1.000000" stroke="none" 
	d="
M451.422852,350.955566 
	C451.147858,348.646851 451.256470,346.149597 451.620911,343.347717 
	C451.853302,345.617767 451.829865,348.192413 451.422852,350.955566 
z"/>
<path fill="#B0B3BC" opacity="1.000000" stroke="none" 
	d="
M324.462952,419.926117 
	C326.154266,419.712036 328.275787,419.555054 330.678467,419.634583 
	C328.937439,419.908447 326.915283,419.945862 324.462952,419.926117 
z"/>
<path fill="#F0F4F7" opacity="1.000000" stroke="none" 
	d="
M381.961884,258.583801 
	C379.992401,258.842957 377.817169,258.736450 375.339111,258.376984 
	C377.276215,258.155396 379.516205,258.186798 381.961884,258.583801 
z"/>
<path fill="#F0F4F7" opacity="1.000000" stroke="none" 
	d="
M300.906372,164.532745 
	C299.863342,164.780090 298.652344,164.692215 297.234802,164.378342 
	C298.264923,164.167404 299.501678,164.182465 300.906372,164.532745 
z"/>
<path fill="#929AAB" opacity="1.000000" stroke="none" 
	d="
M305.373810,419.967407 
	C305.954010,419.695282 306.905762,419.489288 307.927490,419.592407 
	C307.246765,419.945557 306.496033,419.989563 305.373810,419.967407 
z"/>
<path fill="#6B849D" opacity="1.000000" stroke="none" 
	d="
M32.071659,365.335938 
	C32.608341,365.854340 33.072971,366.697662 33.321724,367.751526 
	C32.737103,367.195007 32.368355,366.427917 32.071659,365.335938 
z"/>
<path fill="#F0F4F7" opacity="1.000000" stroke="none" 
	d="
M409.855469,267.654846 
	C408.943420,267.501526 408.037598,267.018036 407.108612,266.195251 
	C408.010864,266.345520 408.936249,266.835083 409.855469,267.654846 
z"/>
<path fill="#F0F4F7" opacity="1.000000" stroke="none" 
	d="
M384.388580,260.021393 
	C383.711426,259.914612 383.465973,259.747040 383.142303,259.331177 
	C384.285400,259.180359 385.545624,259.220886 386.971191,259.607391 
	C386.351501,259.974792 385.566467,259.996185 384.388580,260.021393 
z"/>
<path fill="#B0B3BC" opacity="1.000000" stroke="none" 
	d="
M377.381409,419.968567 
	C377.866882,419.750824 378.720032,419.600739 379.773376,419.662750 
	C379.232086,419.928650 378.490540,419.982422 377.381409,419.968567 
z"/>
<path fill="#F0F4F7" opacity="1.000000" stroke="none" 
	d="
M307.028564,166.655563 
	C306.588806,166.830353 306.019409,166.702866 305.243469,166.362122 
	C305.657623,166.216995 306.278290,166.285141 307.028564,166.655563 
z"/>
<path fill="#BFBEC3" opacity="1.000000" stroke="none" 
	d="
M400.290588,415.872864 
	C400.183197,415.557739 400.409302,415.350800 400.924011,415.136292 
	C400.946075,415.335938 400.749939,415.620056 400.290588,415.872864 
z"/>
<path fill="#F0F4F7" opacity="1.000000" stroke="none" 
	d="
M407.051880,265.667847 
	C406.835846,265.839172 406.550201,265.702301 406.158020,265.311279 
	C406.334625,265.214569 406.644928,265.315399 407.051880,265.667847 
z"/>
<path fill="#F0F4F7" opacity="1.000000" stroke="none" 
	d="
M405.072266,264.687378 
	C404.861755,264.847992 404.570526,264.705719 404.164215,264.313721 
	C404.338928,264.220612 404.653107,264.327423 405.072266,264.687378 
z"/>
<path fill="#F0F4F7" opacity="1.000000" stroke="none" 
	d="
M402.067261,263.689026 
	C401.852631,263.853210 401.563202,263.710114 401.162292,263.314117 
	C401.338684,263.220642 401.652588,263.327484 402.067261,263.689026 
z"/>
<path fill="#F0F4F7" opacity="1.000000" stroke="none" 
	d="
M400.073700,262.686829 
	C399.862915,262.849396 399.570923,262.707733 399.164398,262.314087 
	C399.339020,262.220581 399.653229,262.327393 400.073700,262.686829 
z"/>
<path fill="#F0F4F7" opacity="1.000000" stroke="none" 
	d="
M308.886292,167.704224 
	C308.586517,167.868179 308.375763,167.710907 308.119202,167.316559 
	C308.329681,167.240067 308.630371,167.341232 308.886292,167.704224 
z"/>
<path fill="#F0F4F7" opacity="1.000000" stroke="none" 
	d="
M304.058594,165.697144 
	C303.838806,165.861069 303.550537,165.715408 303.150024,165.320343 
	C303.330688,165.225052 303.648132,165.330612 304.058594,165.697144 
z"/>
<path fill="#F0F4F7" opacity="1.000000" stroke="none" 
	d="
M245.744995,166.086166 
	C245.983673,166.144943 245.655838,166.469864 245.655838,166.469864 
	C245.655838,166.469864 245.234192,166.409286 245.134216,166.286972 
	C245.034225,166.164658 245.506302,166.027390 245.744995,166.086166 
z"/>
<path fill="#BDCBD7" opacity="1.000000" stroke="none" 
	d="
M322.968445,276.023071 
	C329.101837,281.307495 335.167084,286.673584 341.384583,291.857117 
	C350.673035,299.600891 360.060852,307.225647 369.431335,314.870453 
	C370.322693,315.597626 371.390961,316.107941 372.687927,316.858276 
	C373.027222,317.386292 373.055634,317.774994 373.125488,318.448914 
	C372.690552,318.817780 372.214111,318.901459 370.972046,319.057709 
	C369.412567,319.368958 368.633667,319.695343 367.822693,319.833466 
	C350.259521,322.824554 332.697021,325.819763 315.125397,328.760406 
	C302.427155,330.885437 289.715942,332.932617 276.747437,334.726440 
	C276.426147,332.813690 275.984558,331.089355 276.376434,329.581696 
	C278.036774,323.193817 279.837952,316.837341 281.785248,310.530396 
	C285.445740,298.674835 289.242859,286.861511 293.453339,275.020996 
	C300.707123,275.322479 307.488770,275.703064 314.275818,275.892609 
	C315.840759,275.936310 317.424011,275.325531 319.339447,275.060059 
	C320.776184,275.410461 321.872314,275.716766 322.968445,276.023071 
z"/>
<path fill="#ADB9C8" opacity="1.000000" stroke="none" 
	d="
M277.010498,335.014496 
	C289.715942,332.932617 302.427155,330.885437 315.125397,328.760406 
	C332.697021,325.819763 350.259521,322.824554 367.822693,319.833466 
	C368.633667,319.695343 369.412567,319.368958 370.611145,319.082123 
	C367.670349,322.149414 364.463104,325.430817 360.955963,328.352173 
	C343.970093,342.500641 326.867188,356.508667 309.887390,370.664368 
	C304.559113,375.106384 299.485046,379.853333 293.896149,384.742188 
	C293.497681,385.023712 293.002502,384.987701 292.856812,384.667053 
	C286.041199,374.630554 279.413086,364.885559 272.679016,355.214325 
	C270.246521,351.720856 267.559784,348.404419 265.041656,344.697754 
	C265.735352,343.584290 266.376404,342.780334 267.380066,341.975311 
	C270.831940,339.654327 273.921204,337.334412 277.010498,335.014496 
z"/>
<path fill="#929AAB" opacity="1.000000" stroke="none" 
	d="
M293.002502,384.987701 
	C293.002502,384.987701 293.497681,385.023712 293.745117,385.044128 
	C294.178772,385.591217 294.365021,386.117859 294.776855,386.820435 
	C292.612762,394.376190 290.965240,401.714050 292.779419,409.641846 
	C293.370453,412.224670 291.674286,415.330872 291.010254,418.593384 
	C279.308136,418.990326 267.619965,418.991638 255.462723,418.977142 
	C255.676743,415.955750 256.505676,412.974487 257.011230,409.939331 
	C257.943878,404.339783 266.448090,396.951263 272.272461,394.804718 
	C278.132782,392.644897 283.378601,388.817688 289.345245,385.364258 
	C290.865387,385.000793 291.933929,384.994232 293.002502,384.987701 
z"/>
<path fill="#B9D8E3" opacity="1.000000" stroke="none" 
	d="
M181.994507,268.002441 
	C182.601868,266.134155 182.873474,264.060760 183.869705,262.430023 
	C191.860321,249.350296 200.285370,236.526962 207.978180,223.277237 
	C214.016495,212.877151 219.195724,201.978607 224.772781,191.309967 
	C225.452988,190.008743 226.094467,188.650757 226.992950,187.506851 
	C230.046585,183.619141 231.560577,179.539078 229.048386,174.397644 
	C231.272079,175.893509 234.098602,177.371140 235.738449,179.688492 
	C244.565689,192.162704 253.098099,204.845566 261.747742,218.026459 
	C260.848145,219.413162 259.933075,220.229797 258.719147,221.194275 
	C256.603912,223.891769 254.787552,226.441391 252.672974,229.153168 
	C251.145554,230.865372 249.315964,232.239471 248.800461,233.998642 
	C247.291672,239.147568 244.299866,239.316086 239.696793,238.278076 
	C231.882553,236.515900 227.547668,238.948837 223.024155,245.783798 
	C221.862122,247.539612 219.717148,248.644913 217.721100,250.168732 
	C216.603760,251.192749 215.789047,252.097076 214.624237,253.051147 
	C209.739929,255.386993 209.408707,259.706940 208.594086,264.057861 
	C199.454086,265.416992 190.724304,266.709717 181.994507,268.002441 
z"/>
<path fill="#E9F1F5" opacity="1.000000" stroke="none" 
	d="
M259.018005,221.046417 
	C259.933075,220.229797 260.848145,219.413162 261.917542,218.329727 
	C266.271912,216.663208 270.389648,214.896729 274.687347,213.932556 
	C287.594177,211.036926 297.547974,216.175751 305.621979,225.959030 
	C306.145111,226.592911 306.805817,227.113281 307.698822,227.847504 
	C308.235229,229.127411 308.475342,230.246262 308.511597,231.730835 
	C303.874969,234.974762 301.350037,239.003479 301.010590,244.315109 
	C300.656982,249.849045 300.345520,255.385666 299.617065,260.943542 
	C298.155731,260.964844 297.092987,260.963715 296.013123,260.602722 
	C293.331512,256.828064 290.666992,253.413269 287.989868,249.634766 
	C286.687592,247.455017 285.571625,245.479645 284.077454,243.851257 
	C278.370605,237.631668 272.696655,231.366028 266.672913,225.461945 
	C264.635742,223.465210 261.598328,222.488998 259.018005,221.046417 
z"/>
<path fill="#7E9BB3" opacity="1.000000" stroke="none" 
	d="
M89.001915,373.998779 
	C89.001915,373.998779 88.985519,373.515564 88.977394,373.274292 
	C96.748070,368.712250 98.386177,360.340027 101.923119,353.251038 
	C103.650215,349.789490 103.881912,345.951294 104.526489,342.179565 
	C105.374603,337.216919 106.748596,331.076202 113.181320,328.160828 
	C119.271805,328.682678 124.666672,329.279358 130.503738,329.898468 
	C133.616806,329.990204 136.287674,330.059509 139.046722,330.454407 
	C140.258804,331.728333 141.250427,332.937683 142.527084,333.584534 
	C155.213104,340.012177 167.914230,346.412262 180.690079,352.658569 
	C183.630249,354.096069 186.872543,354.915558 190.093460,356.269379 
	C190.478104,357.001740 190.745087,357.484161 191.012085,357.966583 
	C191.010117,358.137451 191.008163,358.308289 190.628265,358.736511 
	C189.498962,358.998383 188.747574,359.002869 187.569214,359.006592 
	C184.684433,359.341492 182.219101,359.629730 179.770050,360.020172 
	C159.667664,363.225220 139.577209,366.506317 119.464294,369.643707 
	C109.330307,371.224518 99.157288,372.555084 89.001915,373.998779 
z"/>
<path fill="#9FB6C9" opacity="1.000000" stroke="none" 
	d="
M191.425476,357.981140 
	C190.745087,357.484161 190.478104,357.001740 190.092316,355.885010 
	C189.080246,352.996002 188.184631,350.742279 187.294159,348.486511 
	C184.861832,342.324799 182.431656,336.162201 180.468964,329.982300 
	C192.946289,329.914551 204.955276,329.864532 217.375610,329.851807 
	C220.052078,329.587860 222.314697,329.266022 224.582870,328.989685 
	C229.533096,328.386566 233.186691,324.870850 233.954529,319.516113 
	C233.894699,317.050507 233.823944,315.019196 234.075485,313.119019 
	C237.748047,315.921112 241.234390,318.440125 244.421417,321.293396 
	C252.028549,328.103851 259.494507,335.071930 267.017456,341.976379 
	C266.376404,342.780334 265.735352,343.584290 264.669647,344.643127 
	C259.223877,345.413025 254.155853,345.653320 249.191483,346.500854 
	C239.250839,348.197937 229.328690,350.050018 219.471664,352.175476 
	C211.584503,353.876160 203.804947,356.075897 195.977615,358.054077 
	C194.598038,358.034607 193.218445,358.015137 191.425476,357.981140 
z"/>
<path fill="#9DAEC3" opacity="1.000000" stroke="none" 
	d="
M196.174530,358.359924 
	C203.804947,356.075897 211.584503,353.876160 219.471664,352.175476 
	C229.328690,350.050018 239.250839,348.197937 249.191483,346.500854 
	C254.155853,345.653320 259.223877,345.413025 264.617004,344.952637 
	C267.559784,348.404419 270.246521,351.720856 272.679016,355.214325 
	C279.413086,364.885559 286.041199,374.630554 292.856812,384.667053 
	C291.933929,384.994232 290.865387,385.000793 289.396149,385.019226 
	C278.483734,382.042603 267.990143,378.988373 257.456329,376.079742 
	C237.641190,370.608368 217.801285,365.226654 197.981567,359.771698 
	C197.388336,359.608398 196.905670,359.043457 196.174530,358.359924 
z"/>
<path fill="#7F8EA4" opacity="1.000000" stroke="none" 
	d="
M187.996185,359.007324 
	C188.747574,359.002869 189.498962,358.998383 190.626099,358.992798 
	C191.333878,360.885742 191.946381,362.778595 191.954315,364.674042 
	C192.028839,382.458618 191.999969,400.243591 191.994324,418.492126 
	C175.639328,418.964447 159.290970,418.973175 142.699326,418.715027 
	C143.705048,417.219574 145.152985,416.134552 146.163559,414.733978 
	C148.614639,411.336975 150.553650,407.526703 153.272430,404.378113 
	C156.435730,400.714691 161.349274,398.447449 161.761688,392.732666 
	C161.808731,392.080872 162.716293,391.434479 163.318298,390.888641 
	C167.320923,387.259552 171.378143,383.690063 175.345093,380.022766 
	C176.172302,379.257996 176.732529,378.188568 177.353302,377.219482 
	C179.122772,374.457245 180.940475,371.721161 182.588699,368.887299 
	C184.475632,365.643066 186.200760,362.304749 187.996185,359.007324 
z"/>
<path fill="#F0F4F7" opacity="1.000000" stroke="none" 
	d="
M300.015594,260.921112 
	C300.345520,255.385666 300.656982,249.849045 301.010590,244.315109 
	C301.350037,239.003479 303.874969,234.974762 308.653259,232.048889 
	C316.583221,239.648972 325.566345,244.981995 335.421906,249.324142 
	C339.646362,251.185364 342.825684,255.418930 346.739014,258.787292 
	C345.850830,262.525635 344.703461,266.051270 342.960083,269.650146 
	C330.226013,263.934326 317.501740,260.730652 303.588226,261.010590 
	C302.132721,260.973724 301.074158,260.947418 300.015594,260.921112 
z"/>
<path fill="#AECAD8" opacity="1.000000" stroke="none" 
	d="
M267.380066,341.975281 
	C259.494507,335.071930 252.028549,328.103851 244.421417,321.293396 
	C241.234390,318.440125 237.748047,315.921112 233.850830,312.897705 
	C229.558136,304.723236 223.414230,299.911530 214.781052,297.710693 
	C211.690475,295.322083 208.812012,293.181091 205.945862,291.016541 
	C205.958191,290.993011 205.964279,291.045380 205.936005,290.728333 
	C205.519287,289.944733 205.130859,289.478180 204.472717,288.825684 
	C198.426041,278.442871 190.147888,272.210175 177.996490,272.039185 
	C177.991287,271.970398 177.982437,271.832733 177.982437,271.832733 
	C177.989044,270.810669 177.995651,269.788574 177.994568,268.383240 
	C178.156723,268.000092 178.326584,268.000214 178.751312,267.999542 
	C179.753296,268.000397 180.500397,268.001984 181.621002,268.002991 
	C190.724304,266.709717 199.454086,265.416992 209.061920,264.065369 
	C217.635056,263.655334 225.330154,263.304169 233.448975,262.962372 
	C235.572571,262.990936 237.272446,263.010101 239.066299,263.372253 
	C253.470261,271.435577 269.111542,273.242523 285.283539,274.290833 
	C288.059937,274.694611 290.534851,274.838806 293.002472,274.993927 
	C292.995178,275.004852 292.983185,275.030609 292.983185,275.030609 
	C289.242859,286.861511 285.445740,298.674835 281.785248,310.530396 
	C279.837952,316.837341 278.036774,323.193817 276.376434,329.581696 
	C275.984558,331.089355 276.426147,332.813690 276.747406,334.726440 
	C273.921204,337.334412 270.831940,339.654327 267.380066,341.975281 
z"/>
<path fill="#9FB6C9" opacity="1.000000" stroke="none" 
	d="
M130.061539,329.876038 
	C124.666672,329.279358 119.271805,328.682678 113.508530,328.014587 
	C112.424599,325.546509 111.709076,323.149841 110.954544,320.374756 
	C110.915550,319.996338 111.414459,319.983093 112.012680,319.988159 
	C113.073914,319.997162 113.536926,320.001099 114.218956,320.272980 
	C118.578819,322.516846 122.783478,324.373596 126.823677,326.537415 
	C128.125549,327.234680 128.994522,328.740234 130.061539,329.876038 
z"/>
<path fill="#768CA5" opacity="1.000000" stroke="none" 
	d="
M187.569199,359.006592 
	C186.200760,362.304749 184.475632,365.643066 182.588699,368.887299 
	C180.940475,371.721161 179.122772,374.457245 177.353302,377.219482 
	C176.732529,378.188568 176.172302,379.257996 175.345093,380.022766 
	C171.378143,383.690063 167.320923,387.259552 163.318298,390.888641 
	C162.716293,391.434479 161.808731,392.080872 161.761688,392.732666 
	C161.349274,398.447449 156.435730,400.714691 153.272430,404.378113 
	C150.553650,407.526703 148.614639,411.336975 146.163559,414.733978 
	C145.152985,416.134552 143.705048,417.219574 142.231171,418.704620 
	C140.265701,418.963165 138.525116,418.965179 136.345062,418.942871 
	C135.640396,418.724030 135.331192,418.319885 135.116241,418.364990 
	C124.027496,420.691650 119.478455,412.165497 114.075775,405.435364 
	C106.845451,396.428497 100.010513,387.104889 92.937950,377.969788 
	C92.068390,376.846649 90.781715,376.046448 89.344772,375.048889 
	C89.001076,374.834137 89.000938,374.667084 89.001358,374.249390 
	C99.157288,372.555084 109.330307,371.224518 119.464294,369.643707 
	C139.577209,366.506317 159.667664,363.225220 179.770050,360.020172 
	C182.219101,359.629730 184.684433,359.341492 187.569199,359.006592 
z"/>
<path fill="#BFCFDB" opacity="1.000000" stroke="none" 
	d="
M113.999924,320.005005 
	C113.536926,320.001099 113.073914,319.997162 112.262085,319.996582 
	C111.939636,318.933868 111.966011,317.867889 111.997231,316.402161 
	C117.094696,311.364624 122.187317,306.726807 128.075485,302.037476 
	C134.321198,302.018219 139.839874,302.638580 143.937195,297.600098 
	C146.733795,294.161133 149.981827,291.089264 153.028030,287.853271 
	C153.028030,287.853271 153.471329,287.864990 153.848938,288.203796 
	C157.160095,293.017517 160.093658,297.492401 162.684174,302.126099 
	C159.359406,303.283875 156.384125,304.302521 153.394852,305.278320 
	C143.174683,308.614655 132.904312,311.805939 122.753685,315.341370 
	C119.668571,316.415894 116.908737,318.424316 113.999924,320.005005 
z"/>
<path fill="#CDDCE5" opacity="1.000000" stroke="none" 
	d="
M163.027222,301.967316 
	C160.093658,297.492401 157.160095,293.017517 154.069473,288.226807 
	C159.837250,279.906433 166.976608,273.674225 177.593613,271.891113 
	C177.982437,271.832733 177.991287,271.970398 177.993027,272.424927 
	C178.001038,273.917725 178.007309,274.955963 177.760086,276.229736 
	C174.352112,282.455963 171.336044,288.525513 167.985855,294.404694 
	C166.261307,297.431122 165.822861,300.128052 167.998779,303.355103 
	C167.659973,304.820892 167.321747,305.921844 166.733200,306.815491 
	C165.330994,305.061218 164.179108,303.514282 163.027222,301.967316 
z"/>
<path fill="#AECAD8" opacity="1.000000" stroke="none" 
	d="
M152.787155,287.609161 
	C149.981827,291.089264 146.733795,294.161133 143.937195,297.600098 
	C139.839874,302.638580 134.321198,302.018219 128.413406,301.975616 
	C129.906586,290.816711 141.805008,284.843384 152.787155,287.609161 
z"/>
<path fill="#E2E8EE" opacity="1.000000" stroke="none" 
	d="
M303.985168,261.021149 
	C317.501740,260.730652 330.226013,263.934326 342.690796,269.879822 
	C340.522522,271.655487 338.219696,273.958374 335.485535,274.726990 
	C331.779816,275.768799 327.743591,275.634857 323.408783,276.014160 
	C321.872314,275.716766 320.776184,275.410461 319.277222,274.726074 
	C316.785797,272.490662 314.691925,270.639282 312.609955,268.774567 
	C309.730316,266.195343 306.859680,263.606110 303.985168,261.021149 
z"/>
<path fill="#D5E0E6" opacity="1.000000" stroke="none" 
	d="
M303.588226,261.010590 
	C306.859680,263.606110 309.730316,266.195343 312.609955,268.774567 
	C314.691925,270.639282 316.785797,272.490662 318.936584,274.681976 
	C317.424011,275.325531 315.840759,275.936310 314.275818,275.892609 
	C307.488770,275.703064 300.707123,275.322479 293.453339,275.020996 
	C292.983185,275.030609 292.995178,275.004852 293.058533,274.602478 
	C293.746307,269.802277 294.370728,265.404510 295.254028,260.998535 
	C295.685364,260.981110 295.857788,260.971893 296.030212,260.962646 
	C297.092987,260.963715 298.155731,260.964844 299.617065,260.943542 
	C301.074158,260.947418 302.132721,260.973724 303.588226,261.010590 
z"/>
<path fill="#E1ECF1" opacity="1.000000" stroke="none" 
	d="
M258.719147,221.194275 
	C261.598328,222.488998 264.635742,223.465210 266.672913,225.461945 
	C272.696655,231.366028 278.370605,237.631668 284.077454,243.851257 
	C285.571625,245.479645 286.687592,247.455017 287.614075,249.576904 
	C282.163544,248.925217 277.076202,247.967682 271.652893,246.966644 
	C269.878326,246.281479 268.439758,245.639816 266.843933,244.701630 
	C262.114838,239.267075 257.543030,234.129059 252.971191,228.991028 
	C254.787552,226.441391 256.603912,223.891769 258.719147,221.194275 
z"/>
<path fill="#D8E9F0" opacity="1.000000" stroke="none" 
	d="
M252.672974,229.153183 
	C257.543030,234.129059 262.114838,239.267075 266.399780,244.702515 
	C264.452972,244.939758 262.739441,245.125931 261.142059,244.778290 
	C252.558914,242.910355 244.241379,242.512665 236.266953,247.313538 
	C233.821045,248.786057 230.717850,249.123856 228.013458,250.222107 
	C225.278305,251.332840 222.664322,252.741959 219.705170,253.985626 
	C218.940018,253.636139 218.466949,253.321426 217.996506,252.636353 
	C218.007309,251.526993 218.015518,250.788025 218.023727,250.049042 
	C219.717148,248.644913 221.862122,247.539612 223.024155,245.783798 
	C227.547668,238.948837 231.882553,236.515900 239.696793,238.278076 
	C244.299866,239.316086 247.291672,239.147568 248.800461,233.998642 
	C249.315964,232.239471 251.145554,230.865372 252.672974,229.153183 
z"/>
<path fill="#C3D8E3" opacity="1.000000" stroke="none" 
	d="
M217.993896,253.006714 
	C218.466949,253.321426 218.940018,253.636139 219.919922,254.244232 
	C222.502090,255.793625 224.626297,256.976654 226.639511,258.325378 
	C228.821991,259.787476 230.901077,261.403870 233.025238,262.953003 
	C225.330154,263.304169 217.635056,263.655334 209.472122,263.998962 
	C209.408707,259.706940 209.739929,255.386993 215.002319,253.052292 
	C216.484940,253.004715 217.239426,253.005722 217.993896,253.006714 
z"/>
<path fill="#D0E3EA" opacity="1.000000" stroke="none" 
	d="
M217.996506,252.636353 
	C217.239426,253.005722 216.484940,253.004715 215.352386,253.002563 
	C215.789047,252.097076 216.603760,251.192749 217.721100,250.168732 
	C218.015518,250.788025 218.007309,251.526993 217.996506,252.636353 
z"/>
<path fill="#DEE7EE" opacity="1.000000" stroke="none" 
	d="
M271.988892,247.010147 
	C277.076202,247.967682 282.163544,248.925217 287.626648,249.940613 
	C290.666992,253.413269 293.331512,256.828064 296.013123,260.602753 
	C295.857788,260.971893 295.685364,260.981110 294.796387,260.996735 
	C290.716003,261.010498 287.352081,261.017883 283.659180,261.018494 
	C282.891785,261.000122 282.453369,260.988495 281.965363,260.627747 
	C280.756104,258.498077 279.697784,256.640411 278.413605,254.954773 
	C276.350525,252.246750 274.138184,249.652481 271.988892,247.010147 
z"/>
<path fill="#B7C7D4" opacity="1.000000" stroke="none" 
	d="
M162.684174,302.126099 
	C164.179108,303.514282 165.330994,305.061218 166.747375,307.186890 
	C168.180481,310.249847 169.378082,312.720947 170.511505,315.221191 
	C172.714417,320.080597 174.881348,324.956329 176.592377,329.867188 
	C163.733902,329.982330 151.346222,330.055573 138.958542,330.128815 
	C136.287674,330.059509 133.616806,329.990204 130.503738,329.898468 
	C128.994522,328.740234 128.125549,327.234680 126.823677,326.537415 
	C122.783478,324.373596 118.578819,322.516846 114.218948,320.272949 
	C116.908737,318.424316 119.668571,316.415894 122.753685,315.341370 
	C132.904312,311.805939 143.174683,308.614655 153.394852,305.278320 
	C156.384125,304.302521 159.359406,303.283875 162.684174,302.126099 
z"/>
<path fill="#8BA9BF" opacity="1.000000" stroke="none" 
	d="
M139.046722,330.454407 
	C151.346222,330.055573 163.733902,329.982330 176.957062,329.911682 
	C178.528580,329.942841 179.264587,329.971405 180.000610,330.000000 
	C182.431656,336.162201 184.861832,342.324799 187.294159,348.486511 
	C188.184631,350.742279 189.080246,352.996002 189.974670,355.635071 
	C186.872543,354.915558 183.630249,354.096069 180.690079,352.658569 
	C167.914230,346.412262 155.213104,340.012177 142.527084,333.584534 
	C141.250427,332.937683 140.258804,331.728333 139.046722,330.454407 
z"/>
<path fill="#C7D4DD" opacity="1.000000" stroke="none" 
	d="
M180.468948,329.982300 
	C179.264587,329.971405 178.528580,329.942841 177.427872,329.869812 
	C174.881348,324.956329 172.714417,320.080597 170.511505,315.221191 
	C169.378082,312.720947 168.180481,310.249847 166.997696,307.394165 
	C167.321747,305.921844 167.659973,304.820892 168.419983,303.358826 
	C178.013565,304.984558 187.171600,307.037781 196.361115,308.938782 
	C204.893951,310.703979 213.460358,312.306824 222.219299,314.103760 
	C222.685974,314.428772 222.879364,314.681671 222.996307,315.357239 
	C222.440933,316.875641 221.850433,318.002686 221.359650,319.171570 
	C219.873779,322.710510 218.426559,326.265686 216.964294,329.814514 
	C204.955276,329.864532 192.946289,329.914551 180.468948,329.982300 
z"/>
<path fill="#DEE7EE" opacity="1.000000" stroke="none" 
	d="
M223.006760,314.985016 
	C222.879364,314.681671 222.685974,314.428772 222.170258,313.763916 
	C218.458603,309.780151 214.965775,306.294495 211.567261,302.719208 
	C210.288559,301.373993 209.228500,299.820984 208.494965,298.284485 
	C210.945145,298.123596 212.969162,298.040955 214.993164,297.958344 
	C223.414230,299.911530 229.558136,304.723236 233.528534,312.766602 
	C233.823944,315.019196 233.894699,317.050507 233.593506,319.523193 
	C229.816620,318.304688 226.411682,316.644867 223.006760,314.985016 
z"/>
<path fill="#BFCFDB" opacity="1.000000" stroke="none" 
	d="
M222.996307,315.357239 
	C226.411682,316.644867 229.816620,318.304688 233.582581,319.957458 
	C233.186691,324.870850 229.533096,328.386566 224.582870,328.989685 
	C222.314697,329.266022 220.052078,329.587860 217.375610,329.851807 
	C218.426559,326.265686 219.873779,322.710510 221.359650,319.171570 
	C221.850433,318.002686 222.440933,316.875641 222.996307,315.357239 
z"/>
<path fill="#D0E3EA" opacity="1.000000" stroke="none" 
	d="
M271.652893,246.966644 
	C274.138184,249.652481 276.350525,252.246750 278.413605,254.954773 
	C279.697784,256.640411 280.756104,258.498077 281.495087,260.635620 
	C277.919312,260.995544 274.756042,260.852203 271.610565,261.027740 
	C260.727814,261.635010 249.851242,262.353302 238.972305,263.029297 
	C237.272446,263.010101 235.572571,262.990936 233.448975,262.962372 
	C230.901077,261.403870 228.821991,259.787476 226.639511,258.325378 
	C224.626297,256.976654 222.502090,255.793625 220.212021,254.278992 
	C222.664322,252.741959 225.278305,251.332840 228.013458,250.222107 
	C230.717850,249.123856 233.821045,248.786057 236.266953,247.313538 
	C244.241379,242.512665 252.558914,242.910355 261.142059,244.778290 
	C262.739441,245.125931 264.452972,244.939758 266.557068,244.999054 
	C268.439758,245.639816 269.878326,246.281479 271.652893,246.966644 
z"/>
<path fill="#C3D8E3" opacity="1.000000" stroke="none" 
	d="
M239.066299,263.372253 
	C249.851242,262.353302 260.727814,261.635010 271.610565,261.027740 
	C274.756042,260.852203 277.919312,260.995544 281.544678,260.984802 
	C282.453369,260.988495 282.891785,261.000122 283.676025,261.414917 
	C284.341888,265.889130 284.661957,269.960175 284.982056,274.031250 
	C269.111542,273.242523 253.470261,271.435577 239.066299,263.372253 
z"/>
<path fill="#DEE7EE" opacity="1.000000" stroke="none" 
	d="
M178.013580,275.994202 
	C178.007309,274.955963 178.001038,273.917725 177.998230,272.493713 
	C190.147888,272.210175 198.426041,278.442871 204.552460,289.127045 
	C205.256042,290.091370 205.610153,290.568390 205.964279,291.045380 
	C205.964279,291.045380 205.958191,290.993011 205.928345,291.447693 
	C206.011871,293.911804 206.125244,295.921234 205.880142,297.901062 
	C199.479141,292.880157 193.479843,287.835144 187.375717,282.920349 
	C184.354614,280.487915 181.140411,278.295319 178.013580,275.994202 
z"/>
<path fill="#CDDCE5" opacity="1.000000" stroke="none" 
	d="
M285.283539,274.290833 
	C284.661957,269.960175 284.341888,265.889130 284.005005,261.421631 
	C287.352081,261.017883 290.716003,261.010498 294.537537,261.004913 
	C294.370728,265.404510 293.746307,269.802277 293.065826,274.591553 
	C290.534851,274.838806 288.059937,274.694611 285.283539,274.290833 
z"/>
<path fill="#9FB6C9" opacity="1.000000" stroke="none" 
	d="
M206.238617,297.930664 
	C206.125244,295.921234 206.011871,293.911804 205.916016,291.471252 
	C208.812012,293.181091 211.690475,295.322083 214.781052,297.710693 
	C212.969162,298.040955 210.945145,298.123596 208.196869,298.173279 
	C207.061264,298.070404 206.649933,298.000519 206.238617,297.930664 
z"/>
<path fill="#9FB6C9" opacity="1.000000" stroke="none" 
	d="
M205.936005,290.728333 
	C205.610153,290.568390 205.256042,290.091370 204.822174,289.313019 
	C205.130859,289.478180 205.519287,289.944733 205.936005,290.728333 
z"/>
<path fill="#D4DFE6" opacity="1.000000" stroke="none" 
	d="
M205.880142,297.901062 
	C206.649933,298.000519 207.061264,298.070404 207.770691,298.251495 
	C209.228500,299.820984 210.288559,301.373993 211.567261,302.719208 
	C214.965775,306.294495 218.458603,309.780151 221.962952,313.641296 
	C213.460358,312.306824 204.893951,310.703979 196.361115,308.938782 
	C187.171600,307.037781 178.013565,304.984558 168.420593,302.993988 
	C165.822861,300.128052 166.261307,297.431122 167.985855,294.404694 
	C171.336044,288.525513 174.352112,282.455963 177.760086,276.229736 
	C181.140411,278.295319 184.354614,280.487915 187.375717,282.920349 
	C193.479843,287.835144 199.479141,292.880157 205.880142,297.901062 
z"/>
</svg>